<svg width="209" height="44" viewBox="0 0 209 44" fill="none" xmlns="http://www.w3.org/2000/svg">
<path d="M163.744 12.1415L160.539 16.0103L163.8 19.8237C163.8 19.8237 174.052 8.30041 174.052 7.80301H170.487H167.309L163.744 12.1415Z" fill="white"/>
<path d="M160.539 26.4559L163.689 30.3247L166.895 34.7461H174.19L163.855 22.7254L160.539 26.4559Z" fill="white"/>
<circle cx="159.503" cy="5.5234" r="2.6943" fill="white"/>
<path d="M144.373 2L159.503 21.0674C152.947 29.2421 149.271 33.8253 142.715 42" stroke="#FF7425" stroke-width="5.02736"/>
<rect x="120.746" y="18.9949" width="24.0415" height="4.55959" fill="#FF7425"/>
<path fill-rule="evenodd" clip-rule="evenodd" d="M49.5955 25.7099H43.9997C43.9444 26.4008 44.0549 27.1745 44.3313 28.0312C44.6353 28.8878 45.1327 29.7445 45.8235 30.6011C46.5144 31.4578 47.4125 32.2453 48.5178 32.9638C49.6232 33.6823 50.9358 34.2626 52.4556 34.7047C53.9755 35.1192 55.7302 35.3265 57.7199 35.3265C60.5109 35.3265 62.7769 34.9949 64.5178 34.3317C66.2864 33.6685 67.5852 32.7427 68.4142 31.5545C69.2708 30.3386 69.6992 28.9154 69.6992 27.285C69.6992 25.9586 69.4505 24.8394 68.953 23.9275C68.4556 23.0156 67.7372 22.2695 66.7976 21.6892C65.8857 21.0812 64.7803 20.5977 63.4815 20.2384C62.2104 19.8515 60.7872 19.5476 59.2121 19.3265C57.5265 19.0778 56.1171 18.8291 54.9841 18.5804C53.8512 18.3317 52.953 18.0692 52.2898 17.7928C51.6266 17.5165 51.1568 17.1987 50.8805 16.8394C50.6042 16.4526 50.466 16.0104 50.466 15.513C50.466 14.2419 51.0325 13.3438 52.1655 12.8187C53.3261 12.2937 54.7907 12.0312 56.5593 12.0312C58.466 12.0312 60.0411 12.3904 61.2847 13.1089C62.5558 13.8274 63.2467 15.0018 63.3572 16.6322H68.7458C68.8011 13.7583 67.7786 11.5061 65.6784 9.87572C63.6059 8.21769 60.6353 7.38867 56.7665 7.38867C54.1966 7.38867 52.0273 7.72028 50.2587 8.38349C48.4902 9.0467 47.1499 9.97244 46.238 11.1607C45.3537 12.3489 44.9116 13.7306 44.9116 15.3058C44.9116 16.5769 45.2017 17.6823 45.7821 18.6218C46.39 19.5338 47.2052 20.3075 48.2277 20.9431C49.2777 21.5787 50.4798 22.1037 51.8339 22.5182C53.1879 22.9051 54.6249 23.2091 56.1448 23.4301C58.0791 23.7065 59.6404 23.9828 60.8287 24.2591C62.0169 24.5078 62.8874 24.8394 63.4401 25.254C63.9928 25.6408 64.2691 26.2073 64.2691 26.9534C64.2691 27.7272 64.048 28.3904 63.6059 28.9431C63.1638 29.4958 62.4867 29.9241 61.5748 30.2281C60.6629 30.532 59.5023 30.684 58.0929 30.684C56.5454 30.684 55.1499 30.4768 53.9064 30.0622C52.6629 29.6201 51.6543 29.026 50.8805 28.2799C50.1344 27.5061 49.7061 26.6495 49.5955 25.7099ZM0 23.718V19.2831H5.51286V12.4866L0 12.4866V7.92753H15.4611C19.0535 7.92753 21.7755 8.53548 23.6269 9.75137C25.506 10.9396 26.4456 12.722 26.4456 15.0985C26.4456 16.6184 26.0725 17.8205 25.3264 18.7047C24.5803 19.5614 23.5164 20.197 22.1347 20.6115C21.3143 20.8626 20.4026 21.058 19.3996 21.1975C20.0571 21.2463 20.6924 21.3135 21.3057 21.399C22.5216 21.5648 23.5855 21.8688 24.4974 22.311C25.4093 22.7531 26.1278 23.3749 26.6529 24.1762C27.1779 24.95 27.4404 25.9724 27.4404 27.2436C27.4404 28.9016 26.9983 30.2833 26.114 31.3887C25.2297 32.4664 24 33.2816 22.4249 33.8343C20.8497 34.3869 19.0259 34.6909 16.9534 34.7462H0V30.1866H5.51286V23.718H0ZM5.51295 30.1866H16.3731C18.114 30.1866 19.4542 29.9103 20.3938 29.3576C21.3333 28.7773 21.8031 27.8654 21.8031 26.6218C21.8031 25.7099 21.5268 25.0467 20.9741 24.6322C20.4214 24.2177 19.6891 23.969 18.7772 23.8861C17.8653 23.7755 16.8843 23.7203 15.8342 23.7203H5.51295V30.1866ZM5.51295 19.285H15.2539C16.9948 19.285 18.3351 19.0363 19.2746 18.5389C20.2142 18.0139 20.6839 17.1296 20.6839 15.8861C20.6839 14.6426 20.2142 13.7721 19.2746 13.2747C18.3351 12.7496 17.0915 12.4871 15.544 12.4871H5.51295V19.285ZM33.1305 7.92753H38.6435V34.7462H33.1305V7.92753ZM100.014 7.92753V27.5604L80.0758 7.92753H74.5628V34.7462H80.0758V15.2658L100.014 34.7462H105.527V7.92753H100.014ZM117.438 30.1451V23.5545L117.43 19.2021L117.438 19.2021V12.5286H138.081V7.92753H111.925V34.7462H138.122V30.1451H117.438ZM179.754 7.92753H208.023V12.5286H196.665V34.7462H191.153V12.5286H179.754V7.92753Z" fill="white"/>
</svg>
