<svg width="17" height="14" viewBox="0 0 17 14" fill="none" xmlns="http://www.w3.org/2000/svg">
<path d="M3.5 3H16L14.4144 8.54944C14.1691 9.40805 13.3844 10 12.4914 10H5.79009C4.77099 10 3.91486 9.23373 3.80232 8.22086L3 1H1" stroke="white" stroke-width="1.5" stroke-linecap="round" stroke-linejoin="round"/>
<path d="M5.5 14C6.05228 14 6.5 13.5523 6.5 13C6.5 12.4477 6.05228 12 5.5 12C4.94772 12 4.5 12.4477 4.5 13C4.5 13.5523 4.94772 14 5.5 14Z" fill="white"/>
<path d="M13.5 14C14.0523 14 14.5 13.5523 14.5 13C14.5 12.4477 14.0523 12 13.5 12C12.9477 12 12.5 12.4477 12.5 13C12.5 13.5523 12.9477 14 13.5 14Z" fill="white"/>
</svg>
